HIERARCHY
ROOT Hips
{
	OFFSET 0.000000 97.167313 0.000000
	CHANNELS 6 Xposition Yposition Zposition Xrotation Yrotation Zrotation
	JOINT Spine
	{
		OFFSET 0.000000 13.784798 0.064400
		CHANNELS 3 Xrotation Yrotation Zrotation
		JOINT Spine1
		{
			OFFSET 0.000000 12.037903 0.404700
			CHANNELS 3 Xrotation Yrotation Zrotation
			JOINT Spine2
			{
				OFFSET 0.000000 17.795601 0.420200
				CHANNELS 3 Xrotation Yrotation Zrotation
				JOINT Neck
				{
					OFFSET 0.000000 39.131302 11.954600
					CHANNELS 3 Xrotation Yrotation Zrotation
					JOINT Head
					{
						OFFSET 0.000000 14.456192 15.627699
						CHANNELS 3 Xrotation Yrotation Zrotation
						JOINT HeadTop_End
						{
							OFFSET 0.000000 15.703506 7.603401
							CHANNELS 3 Xrotation Yrotation Zrotation
							End Site
							{
								OFFSET 0.000000 17.447403 0.000000
							}
						}
					}
				}
				JOINT LeftShoulder
				{
					OFFSET 17.399500 24.608795 1.168800
					CHANNELS 3 Xrotation Yrotation Zrotation
					JOINT LeftArm
					{
						OFFSET 18.980635 5.765305 1.818600
						CHANNELS 3 Xrotation Yrotation Zrotation
						JOINT LeftForeArm
						{
							OFFSET 49.290169 0.000000 0.000000
							CHANNELS 3 Xrotation Yrotation Zrotation
							JOINT LeftHand
							{
								OFFSET 31.562012 0.000000 0.000000
								CHANNELS 3 Xrotation Yrotation Zrotation
								JOINT LeftHandThumb1
								{
									OFFSET 6.133995 -4.388519 7.076070
									CHANNELS 3 Xrotation Yrotation Zrotation
									JOINT LeftHandThumb2
									{
										OFFSET 6.037666 -3.485840 3.485847
										CHANNELS 3 Xrotation Yrotation Zrotation
										JOINT LeftHandThumb3
										{
											OFFSET 6.496506 -3.750763 3.750761
											CHANNELS 3 Xrotation Yrotation Zrotation
											JOINT LeftHandThumb4
											{
												OFFSET 5.616882 -3.242905 3.242910
												CHANNELS 3 Xrotation Yrotation Zrotation
												End Site
												{
													OFFSET -1.254608 7.132141 0.375429
												}
											}
										}
									}
								}
								JOINT LeftHandPinky1
								{
									OFFSET 18.920792 -0.453171 -11.426712
									CHANNELS 3 Xrotation Yrotation Zrotation
									JOINT LeftHandPinky2
									{
										OFFSET 4.919586 0.000000 0.000000
										CHANNELS 3 Xrotation Yrotation Zrotation
										JOINT LeftHandPinky3
										{
											OFFSET 5.233047 0.000000 0.000000
											CHANNELS 3 Xrotation Yrotation Zrotation
											JOINT LeftHandPinky4
											{
												OFFSET 5.571716 0.000000 0.000000
												CHANNELS 3 Xrotation Yrotation Zrotation
												End Site
												{
													OFFSET -3.459808 4.342407 -0.466164
												}
											}
										}
									}
								}
								JOINT LeftHandRing1
								{
									OFFSET 22.726120 -0.094986 -6.500475
									CHANNELS 3 Xrotation Yrotation Zrotation
									JOINT LeftHandRing2
									{
										OFFSET 6.408615 0.000000 0.000000
										CHANNELS 3 Xrotation Yrotation Zrotation
										JOINT LeftHandRing3
										{
											OFFSET 6.150223 0.000000 0.000000
											CHANNELS 3 Xrotation Yrotation Zrotation
											JOINT LeftHandRing4
											{
												OFFSET 6.145386 0.000000 0.000000
												CHANNELS 3 Xrotation Yrotation Zrotation
												End Site
												{
													OFFSET -3.671402 4.923981 -0.202372
												}
											}
										}
									}
								}
								JOINT LeftHandMiddle1
								{
									OFFSET 23.373947 0.000000 0.000001
									CHANNELS 3 Xrotation Yrotation Zrotation
									JOINT LeftHandMiddle2
									{
										OFFSET 6.996567 0.000000 0.000000
										CHANNELS 3 Xrotation Yrotation Zrotation
										JOINT LeftHandMiddle3
										{
											OFFSET 7.015945 0.000000 0.000000
											CHANNELS 3 Xrotation Yrotation Zrotation
											JOINT LeftHandMiddle4
											{
												OFFSET 7.721573 0.000000 0.000000
												CHANNELS 3 Xrotation Yrotation Zrotation
												End Site
												{
													OFFSET -4.651108 6.158463 0.251582
												}
											}
										}
									}
								}
								JOINT LeftHandIndex1
								{
									OFFSET 21.310577 -0.490082 6.209344
									CHANNELS 3 Xrotation Yrotation Zrotation
									JOINT LeftHandIndex2
									{
										OFFSET 7.536453 0.000000 0.000000
										CHANNELS 3 Xrotation Yrotation Zrotation
										JOINT LeftHandIndex3
										{
											OFFSET 7.512344 0.000000 0.000000
											CHANNELS 3 Xrotation Yrotation Zrotation
											JOINT LeftHandIndex4
											{
												OFFSET 10.212402 0.000000 0.000001
												CHANNELS 3 Xrotation Yrotation Zrotation
												End Site
												{
													OFFSET -5.180801 8.690506 1.388433
												}
											}
										}
									}
								}
							}
						}
					}
				}
				JOINT RightShoulder
				{
					OFFSET -17.399500 24.608795 1.168800
					CHANNELS 3 Xrotation Yrotation Zrotation
					JOINT RightArm
					{
						OFFSET -18.980635 5.765305 1.818600
						CHANNELS 3 Xrotation Yrotation Zrotation
						JOINT RightForeArm
						{
							OFFSET -49.290169 0.000000 0.000000
							CHANNELS 3 Xrotation Yrotation Zrotation
							JOINT RightHand
							{
								OFFSET -31.562012 0.000000 0.000000
								CHANNELS 3 Xrotation Yrotation Zrotation
								JOINT RightHandThumb1
								{
									OFFSET -6.133995 -4.388519 7.076070
									CHANNELS 3 Xrotation Yrotation Zrotation
									JOINT RightHandThumb2
									{
										OFFSET -6.037666 -3.485840 3.485847
										CHANNELS 3 Xrotation Yrotation Zrotation
										JOINT RightHandThumb3
										{
											OFFSET -6.496506 -3.750763 3.750761
											CHANNELS 3 Xrotation Yrotation Zrotation
											JOINT RightHandThumb4
											{
												OFFSET -5.616882 -3.242905 3.242910
												CHANNELS 3 Xrotation Yrotation Zrotation
												End Site
												{
													OFFSET 1.254608 7.132141 0.375429
												}
											}
										}
									}
								}
								JOINT RightHandIndex1
								{
									OFFSET -21.310577 -0.490082 6.209344
									CHANNELS 3 Xrotation Yrotation Zrotation
									JOINT RightHandIndex2
									{
										OFFSET -7.536453 0.000000 0.000000
										CHANNELS 3 Xrotation Yrotation Zrotation
										JOINT RightHandIndex3
										{
											OFFSET -7.512344 0.000000 0.000000
											CHANNELS 3 Xrotation Yrotation Zrotation
											JOINT RightHandIndex4
											{
												OFFSET -10.212402 0.000000 0.000001
												CHANNELS 3 Xrotation Yrotation Zrotation
												End Site
												{
													OFFSET 5.180801 8.690506 1.388433
												}
											}
										}
									}
								}
								JOINT RightHandMiddle1
								{
									OFFSET -23.373947 0.000000 0.000001
									CHANNELS 3 Xrotation Yrotation Zrotation
									JOINT RightHandMiddle2
									{
										OFFSET -6.996567 0.000000 0.000000
										CHANNELS 3 Xrotation Yrotation Zrotation
										JOINT RightHandMiddle3
										{
											OFFSET -7.015945 0.000000 0.000000
											CHANNELS 3 Xrotation Yrotation Zrotation
											JOINT RightHandMiddle4
											{
												OFFSET -7.721573 0.000000 0.000000
												CHANNELS 3 Xrotation Yrotation Zrotation
												End Site
												{
													OFFSET 4.651108 6.158463 0.251582
												}
											}
										}
									}
								}
								JOINT RightHandRing1
								{
									OFFSET -22.726120 -0.094986 -6.500475
									CHANNELS 3 Xrotation Yrotation Zrotation
									JOINT RightHandRing2
									{
										OFFSET -6.408615 0.000000 0.000000
										CHANNELS 3 Xrotation Yrotation Zrotation
										JOINT RightHandRing3
										{
											OFFSET -6.150223 0.000000 0.000000
											CHANNELS 3 Xrotation Yrotation Zrotation
											JOINT RightHandRing4
											{
												OFFSET -6.145386 0.000000 0.000000
												CHANNELS 3 Xrotation Yrotation Zrotation
												End Site
												{
													OFFSET 3.671402 4.923981 -0.202372
												}
											}
										}
									}
								}
								JOINT RightHandPinky1
								{
									OFFSET -18.920792 -0.453171 -11.426712
									CHANNELS 3 Xrotation Yrotation Zrotation
									JOINT RightHandPinky2
									{
										OFFSET -4.919586 0.000000 0.000000
										CHANNELS 3 Xrotation Yrotation Zrotation
										JOINT RightHandPinky3
										{
											OFFSET -5.233047 0.000000 0.000000
											CHANNELS 3 Xrotation Yrotation Zrotation
											JOINT RightHandPinky4
											{
												OFFSET -5.571716 0.000000 0.000000
												CHANNELS 3 Xrotation Yrotation Zrotation
												End Site
												{
													OFFSET 3.459808 4.342407 -0.466164
												}
											}
										}
									}
								}
							}
						}
					}
				}
			}
		}
	}
	JOINT LeftUpLeg
	{
		OFFSET 19.899099 -7.885101 -3.429500
		CHANNELS 3 Xrotation Yrotation Zrotation
		JOINT LeftLeg
		{
			OFFSET 1.745560 -36.997807 10.304700
			CHANNELS 3 Xrotation Yrotation Zrotation
			JOINT LeftFoot
			{
				OFFSET -1.745558 -29.803308 -13.615400
				CHANNELS 3 Xrotation Yrotation Zrotation
				JOINT LeftToeBase
				{
					OFFSET 1.181900 -18.539904 15.226099
					CHANNELS 3 Xrotation Yrotation Zrotation
					JOINT LeftToe_End
					{
						OFFSET -0.863701 1.402801 16.534700
						CHANNELS 3 Xrotation Yrotation Zrotation
						End Site
						{
							OFFSET 0.000000 16.616566 0.000000
						}
					}
				}
			}
		}
	}
	JOINT RightUpLeg
	{
		OFFSET -19.899099 -7.885101 -3.429500
		CHANNELS 3 Xrotation Yrotation Zrotation
		JOINT RightLeg
		{
			OFFSET -1.745560 -36.997807 10.304700
			CHANNELS 3 Xrotation Yrotation Zrotation
			JOINT RightFoot
			{
				OFFSET 1.745558 -29.803308 -13.615400
				CHANNELS 3 Xrotation Yrotation Zrotation
				JOINT RightToeBase
				{
					OFFSET -1.181900 -18.539904 15.226099
					CHANNELS 3 Xrotation Yrotation Zrotation
					JOINT RightToe_End
					{
						OFFSET 0.863701 1.402801 16.534700
						CHANNELS 3 Xrotation Yrotation Zrotation
						End Site
						{
							OFFSET 0.000000 16.616566 0.000000
						}
					}
				}
			}
		}
	}
}
MOTION
Frames: 4
Frame Time: 0.033333
2.904189 143.840836 -28.734707 22.790794 -4.896224 0.945393 28.895020 4.731091 0.979671 7.020972 1.329950 0.155037 7.003979 1.374127 0.045332 5.596749 -0.197991 -0.391331 -12.104062 1.439617 -0.483003 0.000001 0.000000 0.000000 0.858810 -23.278014 -7.004184 -31.844049 -51.571719 -41.033779 -0.000001 -13.113123 -0.000012 6.565483 -21.617417 30.135327 -0.708461 0.041472 6.962323 15.520802 23.357674 4.886999 -16.426390 -7.710916 11.143521 0.000001 -0.000000 -0.000002 1.533985 6.591227 -34.297945 0.708872 2.795361 -28.454807 0.369280 2.048814 -20.431975 0.000003 -0.000002 -0.000004 1.921249 6.947627 -32.904768 1.155501 3.494833 -36.581271 0.323949 1.922861 -19.124033 -0.000002 -0.000000 0.000005 0.540079 4.743386 -29.491292 0.776477 2.916469 -29.811621 0.419025 2.177650 -21.781123 0.000000 0.000000 0.000004 -0.531102 0.755433 -20.917934 0.726387 2.827359 -28.811637 0.190245 1.482327 -14.626509 -0.000001 0.000003 0.000001 2.153885 17.947148 3.546533 10.247387 53.937700 0.813331 0.000024 25.131534 -0.000020 -3.967212 25.724449 -18.065900 -5.254190 2.225859 -6.626661 15.219103 -29.150848 -8.743039 -10.390558 6.976904 -11.693023 0.000001 -0.000003 0.000002 -0.362137 -0.440813 14.690147 0.593247 -2.276527 29.209342 0.124989 -1.072871 13.290716 -0.000002 -0.000003 0.000003 0.409408 -4.090746 25.158285 0.536553 -2.172063 27.747990 0.192630 -1.326877 16.519110 0.000002 0.000002 -0.000004 1.421582 -5.848582 31.087189 0.522612 -2.145393 27.378327 0.216242 -1.403989 17.509479 0.000001 0.000003 -0.000003 0.995536 -5.134277 35.577677 0.542486 -2.183264 27.904179 0.318733 -1.694914 21.299349 0.000004 -0.000001 -0.000001 -74.121807 4.878318 3.494898 62.928643 9.227175 -4.642276 -10.722002 3.819470 6.624426 0.863080 0.000009 0.000002 0.000000 0.000001 0.000000 -80.255638 -5.122931 -2.590786 49.462505 -7.431994 6.297866 0.547899 -2.787869 -6.525311 -8.054425 0.000003 0.000001 -0.000000 -0.000000 0.000000 
2.769047 146.664719 -29.836216 20.945757 -3.576087 0.040482 28.425767 4.499692 1.184185 6.918704 1.175517 0.192407 6.901853 1.223030 0.096654 5.681427 -0.135724 -0.411137 -10.299761 1.394725 0.253934 -0.000001 0.000000 -0.000000 0.965929 -22.759287 -6.746117 -28.827643 -50.835701 -39.951996 0.000009 -12.482265 0.000020 12.007198 -18.602507 35.368950 1.297086 -0.541678 2.865054 15.418560 23.434401 5.213319 -16.361004 -7.406020 11.090064 0.000001 0.000001 -0.000001 1.805297 6.954135 -38.871102 1.247845 3.615713 -38.070255 0.526440 2.429058 -24.453360 0.000000 0.000001 -0.000009 2.240437 7.178250 -37.362108 1.796772 4.222235 -46.088464 0.475290 2.313355 -23.216976 -0.000000 0.000001 0.000003 0.727961 5.131889 -33.868285 1.332461 3.721010 -39.393119 0.585795 2.555463 -25.818347 -0.000000 -0.000000 0.000009 -0.333714 1.152708 -25.294193 1.269825 3.643515 -38.417219 0.305697 1.869488 -18.573164 -0.000000 -0.000002 -0.000004 2.725337 18.846234 3.459379 6.046363 49.104463 10.538367 0.000002 25.043092 0.000004 -5.731283 26.081211 -17.812406 -5.156734 2.158323 -6.565707 15.151091 -29.175812 -8.941847 -10.520989 6.689802 -11.695240 -0.000001 -0.000001 -0.000001 -0.356875 -0.392328 14.478420 0.580659 -2.253835 28.890368 0.122355 -1.061673 13.149309 -0.000000 0.000000 0.000004 0.388275 -4.043218 24.882712 0.526024 -2.151946 27.469219 0.193854 -1.330954 16.571209 0.000001 0.000000 -0.000004 1.370838 -5.777353 30.799881 0.516125 -2.132825 27.204474 0.216487 -1.404799 17.519953 -0.000001 -0.000004 -0.000002 0.989532 -5.128097 35.331616 0.531735 -2.162908 27.621147 0.314947 -1.685147 21.170479 0.000001 -0.000002 0.000005 -70.038980 5.774326 4.213264 56.731845 8.846979 -5.417572 -6.854673 1.608902 8.339333 0.651396 0.000008 -0.000001 0.000000 0.000001 -0.000000 -75.450340 -4.850344 -2.295131 44.406260 -7.741096 5.662290 0.074368 -7.231762 -5.330360 -7.716880 -0.000000 -0.000000 -0.000000 -0.000002 0.000000 
2.617746 149.255859 -30.706486 19.385885 -2.284452 -0.784053 27.573443 4.348260 1.652024 6.775362 1.053348 0.319741 6.759674 1.099652 0.238168 5.817236 -0.061264 -0.480683 -8.531065 1.422377 0.976851 0.000001 0.000000 0.000000 0.875783 -22.266403 -7.341635 -25.533308 -49.868809 -38.926980 0.000007 -12.397450 0.000024 13.360583 -17.550656 37.320621 3.792271 -1.499834 -2.046988 15.316385 23.509906 5.539863 -16.295363 -7.101124 11.036448 -0.000000 -0.000003 0.000001 2.182484 7.372240 -44.524641 2.089214 4.484695 -49.939918 0.756031 2.880540 -29.406922 0.000002 -0.000002 -0.000001 2.656859 7.438061 -42.899674 2.741677 4.958889 -57.853280 0.698548 2.776201 -28.241965 -0.000001 0.000000 0.000003 1.008276 5.603396 -39.319869 2.190996 4.568038 -51.229530 0.826894 3.002675 -30.788071 -0.000000 0.000000 0.000008 -0.050237 1.629898 -30.739181 2.115665 4.506704 -50.277145 0.484760 2.335309 -23.450683 -0.000000 0.000002 -0.000003 2.562236 18.888029 4.799800 5.438582 43.889819 15.230610 0.000002 24.640215 -0.000002 -8.333800 25.236765 -17.146159 -5.059304 2.090905 -6.504554 15.083066 -29.200401 -9.140721 -10.651798 6.402750 -11.698804 -0.000001 -0.000000 -0.000004 -0.351296 -0.344011 14.266642 0.568184 -2.231076 28.571383 0.119758 -1.050467 13.007897 -0.000001 -0.000001 0.000001 0.367470 -3.995475 24.607203 0.515597 -2.131787 27.190462 0.195060 -1.335025 16.623313 -0.000000 0.000000 -0.000004 1.320822 -5.705841 30.512607 0.509690 -2.120226 27.030636 0.216735 -1.405613 17.530420 -0.000001 -0.000002 -0.000000 0.983485 -5.121943 35.085575 0.521102 -2.142483 27.338090 0.311147 -1.675349 21.041636 -0.000000 -0.000003 0.000004 -66.227215 6.230570 4.208910 50.776217 8.341131 -5.606002 -3.185262 0.578173 9.498698 0.459023 0.000007 0.000002 -0.000000 0.000001 0.000000 -70.991347 -4.293900 -1.994519 39.858809 -8.009257 4.651102 2.373276 -12.806649 -4.351155 -7.418706 -0.000008 0.000001 0.000001 -0.000002 0.000000 
2.409961 151.241730 -31.180511 17.538879 -0.871780 -1.279169 26.762696 3.667380 2.063011 6.660239 0.885202 0.359989 6.644848 0.940143 0.291012 5.917124 -0.006529 -0.396380 -6.496385 1.499210 1.947350 0.000001 -0.000000 0.000000 0.797032 -22.045803 -7.831499 -21.491332 -47.909614 -38.009552 -0.000000 -13.870386 0.000000 12.284284 -18.684129 37.465678 6.258640 -2.680535 -6.744802 15.214248 23.584268 5.866667 -16.229450 -6.796279 10.982639 -0.000001 0.000001 -0.000002 2.591334 7.742711 -50.064945 3.070283 5.150042 -61.582017 1.017847 3.301661 -34.259505 0.000001 -0.000001 -0.000002 3.071127 7.650322 -48.320071 3.794328 5.478835 -69.387188 0.955766 3.208748 -33.165988 0.000001 0.000001 0.000003 1.328750 6.041991 -44.657064 3.183711 5.209573 -62.838014 1.099754 3.418604 -35.656955 -0.000000 0.000000 0.000004 0.271702 2.070293 -36.067453 3.099713 5.165798 -61.909402 0.697802 2.774812 -28.226698 -0.000000 0.000002 -0.000003 2.320741 18.569826 6.155561 5.300357 38.945646 18.470278 0.000003 24.153393 -0.000002 -11.524084 22.245421 -15.522407 -4.961903 2.023659 -6.443138 15.015029 -29.224675 -9.339664 -10.782996 6.115792 -11.703732 0.000001 0.000002 -0.000002 -0.345369 -0.295811 14.054827 0.555820 -2.208278 28.252408 0.117178 -1.039223 12.866484 -0.000000 -0.000001 -0.000001 0.347015 -3.947533 24.331733 0.505286 -2.111592 26.911676 0.196249 -1.339084 16.675417 -0.000001 0.000000 -0.000008 1.271558 -5.634085 30.225325 0.503280 -2.107638 26.856763 0.216986 -1.406428 17.540906 -0.000001 0.000001 -0.000005 0.977404 -5.115736 34.839521 0.510579 -2.122006 27.055061 0.307396 -1.665568 20.912750 0.000001 -0.000004 0.000005 -62.426542 6.324862 3.541618 46.142361 7.973766 -5.306358 -0.446161 0.110272 9.908386 0.185829 0.000006 0.000002 0.000000 0.000000 0.000000 -67.192976 -3.848386 -2.043561 37.795132 -8.201164 3.415811 7.188950 -14.674021 -4.411579 -7.092563 -0.000014 0.000001 -0.000001 0.000000 0.000000 
